<svg width="131" height="135" viewBox="0 0 131 135" fill="none" xmlns="http://www.w3.org/2000/svg">
<g filter="url(#filter0_d_5_111)">
<path d="M123.747 20.5597L66.9812 0.238747C66.018 -0.0795824 64.9879 -0.0795824 64.0247 0.238747L7.31837 20.5597H7.20011L6.6088 20.8772H6.54967L5.95836 21.2583C5.95836 21.3218 5.89923 21.3218 5.8401 21.3853L5.36706 21.8298L4.95314 22.3378C4.95314 22.4013 4.89401 22.4013 4.89401 22.4648L4.53923 23.0363C4.53923 23.0998 4.53923 23.0998 4.4801 23.1634L4.24357 23.7349L4.06618 24.4334V24.6239C4.00786 24.8728 3.98788 25.1302 4.00705 25.386V76.1884C4.00705 77.5358 4.50544 78.828 5.39257 79.7807C6.2797 80.7334 7.48291 81.2686 8.7375 81.2686C9.9921 81.2686 11.1953 80.7334 12.0824 79.7807C12.9696 78.828 13.468 77.5358 13.468 76.1884V32.4348L33.3359 39.5471C29.6033 45.9635 27.6355 53.3821 27.6593 60.9477C27.6615 67.8283 29.2902 74.5956 32.3929 80.6156C35.4955 86.6356 39.9705 91.711 45.3985 95.3663C34.1187 99.949 24.4891 108.267 17.9028 119.116C17.2314 120.257 17.004 121.634 17.2694 122.953C17.5349 124.271 18.272 125.425 19.3219 126.165C19.8371 126.532 20.415 126.785 21.022 126.91C21.629 127.035 22.2531 127.03 22.8581 126.894C23.4631 126.758 24.037 126.495 24.5465 126.119C25.056 125.743 25.491 125.262 25.8263 124.705C30.1199 117.602 35.9987 111.765 42.9281 107.723C49.8575 103.682 57.6177 101.565 65.5029 101.565C73.3882 101.565 81.1483 103.682 88.0777 107.723C95.0071 111.765 100.886 117.602 105.18 124.705C105.611 125.409 106.2 125.987 106.891 126.386C107.583 126.785 108.356 126.993 109.141 126.991C110.048 127.001 110.935 126.713 111.684 126.165C112.734 125.425 113.471 124.271 113.736 122.953C114.002 121.634 113.774 120.257 113.103 119.116C106.517 108.267 96.8871 99.949 85.6074 95.3663C91.0353 91.711 95.5103 86.6356 98.613 80.6156C101.716 74.5956 103.344 67.8283 103.347 60.9477C103.37 53.3821 101.403 45.9635 97.67 39.5471L123.747 30.2122C124.693 29.8781 125.517 29.2317 126.101 28.3651C126.685 27.4984 127 26.4559 127 25.386C127 24.3161 126.685 23.2735 126.101 22.4069C125.517 21.5402 124.693 20.8938 123.747 20.5597ZM65.5029 91.4291C57.9754 91.4291 50.7561 88.2177 45.4333 82.5013C40.1105 76.7849 37.1202 69.0319 37.1202 60.9477C37.1316 54.4433 39.0563 48.109 42.6194 42.8493L64.0247 50.5332C64.9849 50.8724 66.021 50.8724 66.9812 50.5332L88.3865 42.8493C91.9496 48.109 93.8742 54.4433 93.8857 60.9477C93.8857 69.0319 90.8953 76.7849 85.5726 82.5013C80.2498 88.2177 73.0305 91.4291 65.5029 91.4291Z" fill="#F6AD2B"/>
</g>
<defs>
<filter id="filter0_d_5_111" x="0" y="0" width="131" height="135" filterUnits="userSpaceOnUse" color-interpolation-filters="sRGB">
<feFlood flood-opacity="0" result="BackgroundImageFix"/>
<feColorMatrix in="SourceAlpha" type="matrix" values="0 0 0 0 0 0 0 0 0 0 0 0 0 0 0 0 0 0 127 0" result="hardAlpha"/>
<feOffset dy="4"/>
<feGaussianBlur stdDeviation="2"/>
<feComposite in2="hardAlpha" operator="out"/>
<feColorMatrix type="matrix" values="0 0 0 0 0 0 0 0 0 0 0 0 0 0 0 0 0 0 0.2 0"/>
<feBlend mode="normal" in2="BackgroundImageFix" result="effect1_dropShadow_5_111"/>
<feBlend mode="normal" in="SourceGraphic" in2="effect1_dropShadow_5_111" result="shape"/>
</filter>
</defs>
</svg>
